HIERARCHY
ROOT joint_Root
{
	OFFSET 0.0 0.0 0.0
	CHANNELS 6 Xposition Yposition Zposition Zrotation Xrotation Yrotation 
	JOINT Hips
	{
		OFFSET 4.5925 91.4895 -427.239
		CHANNELS 6 Xposition Yposition Zposition Zrotation Xrotation Yrotation 
		JOINT Spine
		{
			OFFSET 15.7357 0.0 0.0
			CHANNELS 6 Xposition Yposition Zposition Zrotation Xrotation Yrotation 
			JOINT Chest
			{
				OFFSET 8.98455 -0.406207 0.0
				CHANNELS 6 Xposition Yposition Zposition Zrotation Xrotation Yrotation 
				JOINT Neck
				{
					OFFSET 16.3773 0.0 0.0
					CHANNELS 6 Xposition Yposition Zposition Zrotation Xrotation Yrotation 
					JOINT Head
					{
						OFFSET 6.45672 0.0 0.0
						CHANNELS 6 Xposition Yposition Zposition Zrotation Xrotation Yrotation 
						End Site
						{
							OFFSET 0.0 0.0 0.0
						}
					}
				}
				JOINT Shoulder_L
				{
					OFFSET 12.9942 -0.242716 4.98039
					CHANNELS 6 Xposition Yposition Zposition Zrotation Xrotation Yrotation 
					JOINT UpperArm_L
					{
						OFFSET 5.34809 0.0 0.0
						CHANNELS 6 Xposition Yposition Zposition Zrotation Xrotation Yrotation 
						JOINT LowerArm_L
						{
							OFFSET 24.3286 1.87007e-05 0.0
							CHANNELS 6 Xposition Yposition Zposition Zrotation Xrotation Yrotation 
							JOINT Hand_L
							{
								OFFSET 22.2916 0.0 0.0
								CHANNELS 6 Xposition Yposition Zposition Zrotation Xrotation Yrotation 
								End Site
								{
									OFFSET 0.0 0.0 0.0
								}
							}
						}
					}
				}
				JOINT Shoulder_R
				{
					OFFSET 12.9945 -0.242716 -4.98039
					CHANNELS 6 Xposition Yposition Zposition Zrotation Xrotation Yrotation 
					JOINT UpperArm_R
					{
						OFFSET -5.34813 0.0 0.0
						CHANNELS 6 Xposition Yposition Zposition Zrotation Xrotation Yrotation 
						JOINT LowerArm_R
						{
							OFFSET -24.3289 0.000322201 0.0
							CHANNELS 6 Xposition Yposition Zposition Zrotation Xrotation Yrotation 
							JOINT Hand_R
							{
								OFFSET -22.2915 -0.000108084 0.0
								CHANNELS 6 Xposition Yposition Zposition Zrotation Xrotation Yrotation 
								End Site
								{
									OFFSET 0.0 0.0 0.0
								}
							}
						}
					}
				}
			}
		}
		JOINT UpperLeg_L
		{
			OFFSET -2.19248 -6.46944 0.0
			CHANNELS 6 Xposition Yposition Zposition Zrotation Xrotation Yrotation 
			JOINT LowerLeg_L
			{
				OFFSET 39.0811 0.0 -1.23785e-05
				CHANNELS 6 Xposition Yposition Zposition Zrotation Xrotation Yrotation 
				JOINT Foot_L
				{
					OFFSET 40.9854 0.0 -1.26872e-05
					CHANNELS 6 Xposition Yposition Zposition Zrotation Xrotation Yrotation 
					JOINT Toes_L
					{
						OFFSET 11.7543 0.0 0.0
						CHANNELS 6 Xposition Yposition Zposition Zrotation Xrotation Yrotation 
						End Site
						{
							OFFSET 0.0 0.0 0.0
						}
					}
				}
			}
		}
		JOINT UpperLeg_R
		{
			OFFSET -2.19251 6.46944 0.0
			CHANNELS 6 Xposition Yposition Zposition Zrotation Xrotation Yrotation 
			JOINT LowerLeg_R
			{
				OFFSET -39.0811 -0.00228153 -0.0401928
				CHANNELS 6 Xposition Yposition Zposition Zrotation Xrotation Yrotation 
				JOINT Foot_R
				{
					OFFSET -40.9854 0.0 0.0
					CHANNELS 6 Xposition Yposition Zposition Zrotation Xrotation Yrotation 
					JOINT Toes_R
					{
						OFFSET -11.7543 0.0 0.0
						CHANNELS 6 Xposition Yposition Zposition Zrotation Xrotation Yrotation 
						End Site
						{
							OFFSET 0.0 0.0 0.0
						}
					}
				}
			}
		}
	}
}
MOTION
Frames:	5
Frame Time:	0.0333333
0.000000 0.000000 0.000000 0.000000 0.000000 -0.000000 3.235340 86.293100 -55.199900 90.802300 -5.389410 3.675640 15.735700 0.000005 -0.000001 98.165800 83.327200 -98.590000 8.984550 -0.406207 -0.000000 5.453800 1.899770 -0.938080 16.377300 -0.000001 -0.000001 -1.332110 -3.343790 2.511750 6.456720 -0.000001 -0.000000 -2.016870 -4.011150 1.210890 12.994200 -0.242716 4.980390 -90.927900 3.276150 -74.176300 5.348090 -0.000007 -0.000001 -67.214000 20.163600 0.221288 24.328600 0.000019 0.000005 3.114840 0.278034 -84.915000 22.291600 -0.000001 0.000005 19.819500 5.511150 -6.990680 12.994500 -0.242716 -4.980390 88.877600 9.288030 -83.079000 -5.348130 -0.000001 -0.000004 -56.546700 22.087000 -23.336600 -24.328900 0.000322 -0.000009 -21.602400 -2.136370 -84.621500 -22.291500 -0.000108 -0.000004 26.923600 5.651350 -15.143200 -2.192480 -6.469440 -0.000000 177.768000 -5.088120 -24.032700 39.081100 -0.000007 -0.000012 -0.379935 0.317091 50.152700 40.985400 -0.000006 -0.000013 1.777030 -2.930350 -73.023100 11.754300 -0.000000 0.000003 -0.000075 -0.000804 -16.608600 -2.192510 6.469440 -0.000001 174.240000 8.428050 162.860000 -39.081100 -0.002282 -0.040193 0.196865 -0.037361 79.097000 -40.985400 0.000008 0.000006 6.603150 -0.542378 -47.143600 -11.754300 -0.000006 -0.000006 -0.014327 -0.133534 -22.020300
0.000000 0.000000 0.000000 0.000000 0.000000 -0.000000 3.314240 85.592500 -50.997200 90.592900 -4.439080 3.598310 15.735700 0.000005 -0.000001 93.288600 83.295900 -93.616200 8.984550 -0.406207 -0.000000 5.622730 0.773426 -0.692531 16.377300 -0.000001 -0.000001 -1.465300 -3.407110 2.095800 6.456720 -0.000001 -0.000000 -2.078790 -3.468480 1.317710 12.994200 -0.242716 4.980390 -91.110700 4.069240 -74.718700 5.348090 -0.000007 -0.000001 -64.486100 18.008400 -9.302390 24.328600 0.000019 0.000005 1.417560 0.065222 -87.386100 22.291600 -0.000001 0.000005 20.638500 5.509030 -6.902100 12.994500 -0.242716 -4.980390 88.677000 10.033000 -82.449100 -5.348130 -0.000001 -0.000004 -58.126700 24.251700 -16.433500 -24.328900 0.000322 -0.000009 -21.365300 -3.846650 -80.268100 -22.291500 -0.000108 -0.000004 27.474900 5.657070 -15.728300 -2.192480 -6.469440 -0.000000 177.853000 -4.775190 -22.075000 39.081100 -0.000007 -0.000012 -0.469620 0.359429 52.572100 40.985400 -0.000006 -0.000013 1.935100 -2.689040 -77.441800 11.754300 -0.000000 0.000003 -0.000192 -0.001787 -16.645000 -2.192510 6.469440 -0.000001 175.347000 9.277520 157.037000 -39.081100 -0.002282 -0.040193 0.169552 -0.020793 82.897900 -40.985400 0.000008 0.000006 6.749250 -1.864570 -51.412100 -11.754300 -0.000006 -0.000006 -0.013630 -0.129012 -21.834800
0.000000 0.000000 0.000000 0.000000 0.000000 -0.000000 3.279780 85.352400 -46.884200 90.323100 -3.094940 3.164880 15.735700 0.000005 -0.000001 88.225200 83.312600 -88.378800 8.984550 -0.406207 -0.000000 5.601880 -0.410331 -0.286648 16.377300 -0.000001 -0.000001 -1.629180 -3.583870 1.794640 6.456720 -0.000001 -0.000000 -2.157210 -3.110500 1.377690 12.994200 -0.242716 4.980390 -91.129000 4.348340 -75.429800 5.348090 -0.000007 -0.000001 -63.247700 15.615100 -18.545000 24.328600 0.000019 0.000005 0.417370 0.000246 -89.988400 22.291600 -0.000001 0.000005 21.063500 5.509040 -6.902130 12.994500 -0.242716 -4.980390 88.439400 10.417900 -81.432300 -5.348130 -0.000001 -0.000004 -59.802700 26.020600 -8.772410 -24.328900 0.000322 -0.000009 -21.495700 -5.157980 -77.139900 -22.291500 -0.000108 -0.000004 27.525300 5.657660 -15.795100 -2.192480 -6.469440 -0.000000 178.128000 -3.977510 -19.380900 39.081100 -0.000007 -0.000012 -0.534324 0.405970 52.774300 40.985400 -0.000006 -0.000013 1.999200 -2.395720 -80.713200 11.754300 -0.000000 0.000003 -0.000277 -0.002433 -16.668400 -2.192510 6.469440 -0.000001 176.810000 11.061900 151.902000 -39.081100 -0.002282 -0.040193 0.143096 -0.019443 82.113500 -40.985400 0.000008 0.000006 6.815350 -1.914920 -56.563100 -11.754300 -0.000006 -0.000006 -0.013534 -0.128376 -21.808700
0.000000 0.000000 0.000000 0.000000 0.000000 -0.000000 3.078550 85.559400 -42.689600 89.921400 -1.992250 2.654050 15.735700 0.000005 -0.000001 84.312000 83.308600 -84.243100 8.984550 -0.406207 -0.000000 5.552830 -1.324570 0.201884 16.377300 -0.000001 -0.000001 -1.839720 -3.732460 1.556900 6.456720 -0.000001 -0.000000 -2.327670 -2.810620 1.589770 12.994200 -0.242716 4.980390 -90.977200 3.981330 -76.198000 5.348090 -0.000007 -0.000001 -63.283000 13.625600 -26.682700 24.328600 0.000019 0.000005 0.798309 -0.036796 -92.612900 22.291600 -0.000001 0.000005 21.342300 5.506140 -6.783130 12.994500 -0.242716 -4.980390 88.239700 10.558900 -80.479600 -5.348130 -0.000001 -0.000004 -61.723300 27.079300 -0.146672 -24.328900 0.000322 -0.000009 -21.858500 -5.539880 -76.467800 -22.291500 -0.000108 -0.000004 26.834900 5.657400 -15.770400 -2.192480 -6.469440 -0.000000 178.768000 -3.477220 -15.640100 39.081100 -0.000007 -0.000012 -0.569467 0.463924 50.833000 40.985400 -0.000006 -0.000013 1.962970 -1.939410 -82.976500 11.754300 -0.000000 0.000003 -0.000334 -0.002843 -16.683100 -2.192510 6.469440 -0.000001 178.686000 12.642900 148.022000 -39.081100 -0.002282 -0.040193 0.110237 -0.024839 76.961100 -40.985400 0.000008 0.000006 6.100040 -1.601040 -60.558300 -11.754300 -0.000006 -0.000006 -0.012698 -0.122799 -21.580100
0.000000 0.000000 0.000000 0.000000 0.000000 -0.000000 2.743060 86.168000 -38.359200 89.380300 -1.003870 1.729970 15.735700 0.000005 -0.000001 79.950800 83.456400 -79.616200 8.984550 -0.406207 -0.000000 5.130330 -2.286530 0.771130 16.377300 -0.000001 -0.000001 -2.005420 -3.780200 1.413070 6.456720 -0.000001 -0.000000 -2.484420 -2.240550 1.852900 12.994200 -0.242716 4.980390 -90.702400 2.973290 -76.702700 5.348090 -0.000007 -0.000001 -63.945500 12.410000 -32.708800 24.328600 0.000019 0.000005 2.552360 -0.235096 -95.251800 22.291600 -0.000001 0.000005 21.696700 5.504110 -6.701290 12.994500 -0.242716 -4.980390 88.134200 10.054400 -79.429800 -5.348130 -0.000001 -0.000004 -64.319600 28.036600 8.208100 -24.328900 0.000322 -0.000009 -22.566400 -5.572810 -76.845900 -22.291500 -0.000108 -0.000004 26.244800 5.656140 -15.631700 -2.192480 -6.469440 -0.000000 179.647000 -2.828220 -11.177800 39.081100 -0.000007 -0.000012 -0.532315 0.503132 46.615800 40.985400 -0.000006 -0.000013 1.731520 -1.546620 -84.115000 11.754300 -0.000000 0.000003 -0.000332 -0.002832 -16.682700 -2.192510 6.469440 -0.000001 -179.099000 13.987700 145.496000 -39.081100 -0.002282 -0.040193 0.073413 -0.028557 67.884800 -40.985400 0.000008 0.000006 5.491740 -1.502300 -62.717500 -11.754300 -0.000006 -0.000006 -0.013949 -0.131097 -21.920300
